Simulation
nRows=48
nColumns=15
endheader
time  TH_x TH_y TH_z SC_y  SC_z  SC_x  AC_y  AC_z  AC_x  GH_y  GH_z  GH_yy  EL_x  PS_y
1.5  0.000000  0.000000  0.000000  -39.543834786686574  9.194409387916828  14.527826289117726  41.72252992490786  21.774528042041656  7.642963233434674  2.115954544252596  54.81394043037148  4.377408589377902  19.63611158412726  0.000000
1.53  0.000000  0.000000  0.000000  -39.29287476855296  9.032552990525689  14.04619856418766  41.62433690770146  21.712349432276746  7.339338624204011  2.030859978073305  54.28529052867132  4.05634166976088  19.84599471728245  0.000000
1.56  0.000000  0.000000  0.000000  -39.0222050802793  8.82962367041557  13.475725762790395  41.52590564232261  21.655301243425274  7.018218056966492  1.9253583600583795  53.53313442570012  3.609730874032296  20.14366461072846  0.000000
1.5899999999999999  0.000000  0.000000  0.000000  -38.748232091805775  8.589978115093562  12.83780374912268  41.434583508652004  21.59934889978636  6.690011818303877  1.803700188074168  52.538472894909674  3.0481632909411336  20.540141509683362  0.000000
1.6199999999999999  0.000000  0.000000  0.000000  -38.47876749281732  8.319520479739804  12.143177497603894  41.353113098872065  21.52934609366983  6.355125020003871  1.6738388618995974  51.30939458620171  2.39280186575745  21.047664957580192  0.000000
1.65  0.000000  0.000000  0.000000  -38.21608551762621  8.02281251463377  11.39389501088242  41.28449270910543  21.425498413988024  6.010164788917477  1.543336935545052  49.873735616454894  1.6701118267767843  21.676619448512835  0.000000
1.68  0.000000  0.000000  0.000000  -37.95712853551027  7.703984261543062  10.590342174347336  41.2349341354764  21.265618055559695  5.654796796181568  1.413022182377492  48.27343930000629  0.9104937044144114  22.425611905819395  0.000000
1.71  0.000000  0.000000  0.000000  -37.69520660259209  7.3653851618954  9.733065287353234  41.21672385549253  21.029166256362505  5.292946634878848  1.2754962943481947  46.56351512556131  0.1462636380623534  23.27461922386196  0.000000
1.74  0.000000  0.000000  0.000000  -37.421903147644635  7.005934782861837  8.824463357200889  41.243950984172336  20.700278672221245  4.93269649723249  1.1175014116789392  44.80915201426371  -0.5889768439369728  24.185939413837797  0.000000
1.77  0.000000  0.000000  0.000000  -37.12835501328  6.623637612378496  7.871571309845056  41.32411636740109  20.270927264107847  4.583422187032156  0.9273047215402814  43.074676178999304  -1.2632666819768925  25.10855855986463  0.000000
1.7999999999999998  0.000000  0.000000  0.000000  -36.81017011699228  6.2188494099278175  6.893081055105997  41.453947082629576  19.737848680538328  4.250277973103842  0.704831387684625  41.41100772140004  -1.8468287557602299  25.981851472783706  0.000000
1.8299999999999998  0.000000  0.000000  0.000000  -36.466336980356665  5.79172074128239  5.9175332022834395  41.62031042026053  19.10318603068526  3.927587337291533  0.46389688664550766  39.84961673998946  -2.3165807710764468  26.741996299211312  0.000000
1.8599999999999999  0.000000  0.000000  0.000000  -36.09801714238787  5.34165809922548  4.964180711528082  41.80149747904246  18.38297847420308  3.6132055213643715  0.22315362543142384  38.40657958003772  -2.6555002846881184  27.33059628863704  0.000000
1.89  0.000000  0.000000  0.000000  -35.70992162319378  4.87027610688257  4.044633679911125  41.97830320382227  17.604977216231458  3.3107087895293383  -0.007796393629227524  37.085742009451806  -2.8602524146481065  27.710509997608664  0.000000
1.92  0.000000  0.000000  0.000000  -35.31297097562529  4.381678109696511  3.1772612822688  42.14157754663142  16.792699745736993  3.019775408861876  -0.23208192955333112  35.884914963193694  -2.942777160984864  27.877596847538733  0.000000
1.95  0.000000  0.000000  0.000000  -34.92157965799123  3.8850737356263  2.3821642497187363  42.29028587224342  15.963838884519726  2.7398526638842475  -0.46212746029768786  34.79261334561663  -2.928857965407145  27.8536859746537  0.000000
1.98  0.000000  0.000000  0.000000  -34.54859706253207  3.3890754707338813  1.6759739346016673  42.42684380404369  15.132262793252494  2.467373753189899  -0.7108644633042732  33.79241302628883  -2.849065603622472  27.66978912413182  0.000000
2.01  0.000000  0.000000  0.000000  -34.2018901701294  2.8995732194197186  1.0670438689387602  42.55380010846677  14.313599602552282  2.198641096729623  -0.9874227504014366  32.8613569727183  -2.73411770502101  27.35684043822383  0.000000
2.04  0.000000  0.000000  0.000000  -33.884848533735806  2.4243006161109184  0.5564246417761551  42.67269013500336  13.520731420845408  1.9340535479307213  -1.2945791658048185  31.97287669125187  -2.608881893429527  26.943232726089715  0.000000
2.07  0.000000  0.000000  0.000000  -33.59655099839915  1.9710322800777245  0.13700227147954433  42.78485426877228  12.769323542105496  1.6784960067262353  -1.6300375842708723  31.096509469729696  -2.492475252511585  26.455747653993214  0.000000
2.1  0.000000  0.000000  0.000000  -33.33299172391742  1.5471574049224752  -0.20345165269908144  42.889138944786794  12.07104320247075  1.4388766121066936  -1.9871025219882945  30.20648078995363  -2.3934472818333714  25.919803542033346  0.000000
2.13  0.000000  0.000000  0.000000  -33.08947982007647  1.158271625935179  -0.48321517775725337  42.98225471746167  11.436822479890974  1.222171424882534  -2.355335598053397  29.283162892161343  -2.3097963623566176  25.35614980886015  0.000000
2.16  0.000000  0.000000  0.000000  -32.858755767147564  0.8071078173401883  -0.7184865659482447  43.055247632378475  10.872784134541646  1.0293879463301996  -2.7254811024990526  28.31480541336466  -2.2288412216178477  24.781442007441147  0.000000
2.19  0.000000  0.000000  0.000000  -32.6395445438911  0.4978132480354688  -0.9069976790683616  43.105128199074386  10.37553689122351  0.8497036941895462  -3.0860068569056045  27.289074577255196  -2.126089982033381  24.207266374324504  0.000000
2.2199999999999998  0.000000  0.000000  0.000000  -32.435220061714574  0.23456199324522617  -1.0357679735183982  43.12899391848056  9.93818799756696  0.6706810372827431  -3.4225729514046246  26.192422720535273  -1.9631978614250805  23.64360469204478  0.000000
2.25  0.000000  0.000000  0.000000  -32.24986632325497  0.026003027155221004  -1.0842464708716455  43.1261935017607  9.555620481728292  0.47523136450227516  -3.7166515956760082  25.000612723889667  -1.6893455850689572  23.098708178708183  0.000000
2.28  0.000000  0.000000  0.000000  -32.08614941063327  -0.12167216943050407  -1.031612787216142  43.092427421955676  9.216572852628952  0.24488334214230095  -3.9513447973011897  23.691319198663138  -1.256547709052246  22.58162526520819  0.000000
2.31  0.000000  0.000000  0.000000  -31.945422613572674  -0.22052571258972836  -0.8750855401990713  43.021537152380105  8.920959917627675  -0.038911601385228395  -4.116458128378883  22.25465624845159  -0.6341776993724595  22.109803579847412  0.000000
2.34  0.000000  0.000000  0.000000  -31.81909921638182  -0.27923832262515685  -0.6346870999586023  42.90340637570784  8.662805113962172  -0.3814808131011353  -4.205284015135381  20.696383539578086  0.1818776618437592  21.708758954024884  0.000000
2.37  0.000000  0.000000  0.000000  -31.696393800090483  -0.2982684468930916  -0.3365712089257934  42.72901058316555  8.429833855002032  -0.7739953563830915  -4.20722425833736  19.024538372860075  1.164580684156658  21.404856530628923  0.000000
2.4  0.000000  0.000000  0.000000  -31.57458481946545  -0.2875586715880523  -0.01137527870736288  42.50271922701982  8.224517731696096  -1.202709149087325  -4.102006965467383  17.253182180983607  2.2518393208570835  21.20984217710504  0.000000
2.4299999999999997  0.000000  0.000000  0.000000  -31.459379420035393  -0.260817810587629  0.3169386115146626  42.24007522713253  8.059935258087169  -1.6466872253623652  -3.8674541390879615  15.393833954978666  3.349463673941213  21.110038879387805  0.000000
2.46  0.000000  0.000000  0.000000  -31.359441607780646  -0.22713221063403  0.6263509296241266  41.96195664567402  7.949908727775536  -2.081874518497428  -3.477685335109862  13.461187078104386  4.370273336270192  21.081427357619628  0.000000
2.4899999999999998  0.000000  0.000000  0.000000  -31.26586578867876  -0.19182704754196545  0.895612034178971  41.673831421437924  7.902254757286907  -2.4920910448416618  -2.9160055179122684  11.477963207536662  5.266802943934172  21.1141088000006  0.000000
2.52  0.000000  0.000000  0.000000  -31.15046341530976  -0.15283012152803044  1.105821990157139  41.361963216751455  7.911114940541658  -2.8698747726206633  -2.1730115695445886  9.484399923302792  6.0510731262550435  21.21480360855552  0.000000
2.55  0.000000  0.000000  0.000000  -30.973764813906595  -0.10840000080863503  1.2508466182287654  41.02840939040639  7.960556769745926  -3.218198607447722  -1.2584706744940755  7.530772111736957  6.761026648505289  21.38399125899304  0.000000
2.58  0.000000  0.000000  0.000000  -30.71614377945698  -0.06149924553806687  1.3450550131601589  40.686363739873634  8.020469478563166  -3.5307403607040113  -0.19206221981076874  5.668719000627511  7.4355213803911475  21.6014611913781  0.000000
2.61  0.000000  0.000000  0.000000  -30.376766815372694  -0.021628646431120134  1.4028281214707288  40.40060898608073  8.064936275384508  -3.800511262791461  0.9973049614267702  3.9424142662002204  8.094221946035432  21.838205879235606  0.000000
2.6399999999999997  0.000000  0.000000  0.000000  -29.97470257629626  -0.022289484356744948  1.446954802849072  40.19237538319627  8.065090440181335  -4.036810419638913  2.2723855930118497  2.4132096471773203  8.740955331354362  22.063769099063943  0.000000
2.67  0.000000  0.000000  0.000000  -29.54877736735758  -0.03788363379127504  1.50691277275484  40.04274568473972  7.9781465148168245  -4.234734800444524  3.5993659056855876  1.096433018555365  9.382229429035634  22.265578670998945  0.000000
2.6999999999999997  0.000000  0.000000  0.000000  -29.118915319890924  -0.026428873223942377  1.5754116601387538  40.00033018520228  7.809127394062577  -4.365276037872094  4.935873742625763  -0.07686633267352355  9.9910789018432  22.463102614993765  0.000000
2.73  0.000000  0.000000  0.000000  -28.67566380087415  -0.05877837760424075  1.629067120811889  40.109027899207526  7.609631532932726  -4.425171465243844  6.197757581461469  -1.1059852595622575  10.500330534334893  22.65509218202026  0.000000
2.76  0.000000  0.000000  0.000000  -28.247863457030423  -0.07475834807292017  1.7262990161889524  40.23217320685892  7.335878757635952  -4.429176711125316  7.353108810088337  -1.9592881892424807  10.912308393248537  22.831967804655996  0.000000
2.79  0.000000  0.000000  0.000000  -27.865267308854467  -0.049854615443039485  1.8083430604614334  40.48309373131912  7.038420623218232  -4.434138394140762  8.385775857153806  -2.5672546922150663  11.249606648037252  23.026527251680317  0.000000
2.82  0.000000  0.000000  0.000000  -27.46800903345626  -0.2119551156472739  1.845583010738948  40.67093018461614  6.861262503177856  -4.545037784688388  9.132900694578238  -2.921812545990822  11.361351279634222  23.144217928545565  0.000000
2.85  0.000000  0.000000  0.000000  -27.19375434462806  -0.16191101937087882  2.024507832808997  40.3671170227316  6.636545414589606  -4.577449034644651  9.699603643966375  -3.278605904825042  11.35849257316947  23.132794174690005  0.000000
2.88  0.000000  0.000000  0.000000  -27.19065037283619  0.3887223903769883  2.0255570033968087  40.654927095681394  6.461223584396429  -4.385162712995322  10.2184555966536  -3.563833635418001  11.479620251189637  23.314711330442687  0.000000
2.9099999999999997  0.000000  0.000000  0.000000  -27.386416856406775  0.7332867461802564  1.5394093685862873  42.10016205808583  6.6761279599130265  -4.204030911328668  10.437904094997274  -3.494076132059194  11.559501164344422  23.757120587896146  0.000000
